# xmcd
#
# Track frame offsets:
#	150
#	14663
#	27799
#	40827
#	57176
#	70796
#	85676
#	102186
#	116715
#	133918
#
# Disc length: 2032 seconds
# Revision: 0
# Processed by: cddbd v1.5.2PL0 Copyright (c) Steve Scherf et al.
# Submitted via: dBpowerAMP V12.0
#
DISCID=8107ee0a
DTITLE=Bobby Dean - Enough To Leave
DYEAR=2010
DGENRE=Country
TTITLE0=Honky Tonk With Me
TTITLE1=Let Me Love You
TTITLE2=Missing Her
TTITLE3=She Knows
TTITLE4=Enough To Leave
TTITLE5=Sweet Lies
TTITLE6=Outlaw
TTITLE7=Wined It Down
TTITLE8=Since She Left Me
TTITLE9=Shes All Over Him
EXTD=
EXTT0=
EXTT1=
EXTT2=
EXTT3=
EXTT4=
EXTT5=
EXTT6=
EXTT7=
EXTT8=
EXTT9=
PLAYORDER=
